<svg id="Layer_1" data-name="Layer 1" xmlns="http://www.w3.org/2000/svg" viewBox="0 0 792 612"><defs><style>.cls-1,.cls-3{fill:none;}.cls-1,.cls-2,.cls-3{stroke:#231f20;stroke-miterlimit:10;}.cls-1{stroke-width:7px;}.cls-2{fill:#fff;}.cls-3{stroke-width:10px;}</style></defs><title>Artboard 2</title><circle class="cls-1" cx="413.16" cy="227.46" r="37.7"/><circle class="cls-1" cx="477.48" cy="276.76" r="37.7"/><circle class="cls-1" cx="450.12" cy="350.3" r="37.7"/><circle class="cls-1" cx="348.38" cy="273.3" r="37.7"/><circle class="cls-1" cx="371.72" cy="348.53" r="37.7"/><path class="cls-2" d="M433.65,336.48a8.33,8.33,0,0,1-10.48,2.31,10.37,10.37,0,0,1-20.73-.2,8.34,8.34,0,0,1-10.85-2.11,12.86,12.86,0,0,1,0-15.88l14.26-17a8.68,8.68,0,0,1,6.77-3.28h.12a8.65,8.65,0,0,1,6.65,3.28l14.26,17A12.86,12.86,0,0,1,433.65,336.48Z"/><path class="cls-2" d="M391.59,252.68a8.33,8.33,0,0,1,10.48-2.31,10.37,10.37,0,0,1,20.73.2,8.34,8.34,0,0,1,10.85,2.11,12.86,12.86,0,0,1,0,15.88l-14.26,17a8.68,8.68,0,0,1-6.77,3.28h-.12a8.65,8.65,0,0,1-6.65-3.28l-14.26-17A12.86,12.86,0,0,1,391.59,252.68Z"/><path class="cls-2" d="M370.72,315.85a8.33,8.33,0,0,1-2.31-10.48,10.37,10.37,0,0,1,.2-20.73,8.34,8.34,0,0,1,2.11-10.85,12.86,12.86,0,0,1,15.88,0l17,14.26a8.68,8.68,0,0,1,3.28,6.77v.12a8.65,8.65,0,0,1-3.28,6.65l-17,14.26A12.86,12.86,0,0,1,370.72,315.85Z"/><path class="cls-2" d="M454.52,273.79a8.33,8.33,0,0,1,2.31,10.48,10.37,10.37,0,0,1-.2,20.73,8.34,8.34,0,0,1-2.11,10.85,12.86,12.86,0,0,1-15.88,0l-17-14.26a8.68,8.68,0,0,1-3.28-6.77v-.12a8.65,8.65,0,0,1,3.28-6.65l17-14.26A12.86,12.86,0,0,1,454.52,273.79Z"/><circle class="cls-3" cx="412.41" cy="294.85" r="113.16"/><circle class="cls-2" cx="412.62" cy="294.82" r="8.73"/></svg>